<?xml version="1.0" standalone="no"?><svg xmlns="http://www.w3.org/2000/svg" viewBox="0 0 1440 320"><path fill="#F5E9DB" fill-opacity="1" d="M0,128L20,149.3C40,171,80,213,120,213.3C160,213,200,171,240,154.7C280,139,320,149,360,133.3C400,117,440,75,480,64C520,53,560,75,600,106.7C640,139,680,181,720,192C760,203,800,181,840,186.7C880,192,920,224,960,229.3C1000,235,1040,213,1080,218.7C1120,224,1160,256,1200,240C1240,224,1280,160,1320,117.3C1360,75,1400,53,1420,42.7L1440,32L1440,0L1420,0C1400,0,1360,0,1320,0C1280,0,1240,0,1200,0C1160,0,1120,0,1080,0C1040,0,1000,0,960,0C920,0,880,0,840,0C800,0,760,0,720,0C680,0,640,0,600,0C560,0,520,0,480,0C440,0,400,0,360,0C320,0,280,0,240,0C200,0,160,0,120,0C80,0,40,0,20,0L0,0Z"></path></svg>